<svg id="visual" viewBox="0 0 900 600" width="900" height="600" xmlns="http://www.w3.org/2000/svg" xmlns:xlink="http://www.w3.org/1999/xlink" version="1.1"><rect x="0" y="0" width="900" height="600" fill="#F5F7FF"></rect><path d="M0 353L21.5 355.5C43 358 86 363 128.8 366C171.7 369 214.3 370 257.2 375.7C300 381.3 343 391.7 385.8 402.3C428.7 413 471.3 424 514.2 417.2C557 410.3 600 385.7 642.8 380C685.7 374.3 728.3 387.7 771.2 397C814 406.3 857 411.7 878.5 414.3L900 417L900 601L878.5 601C857 601 814 601 771.2 601C728.3 601 685.7 601 642.8 601C600 601 557 601 514.2 601C471.3 601 428.7 601 385.8 601C343 601 300 601 257.2 601C214.3 601 171.7 601 128.8 601C86 601 43 601 21.5 601L0 601Z" fill="#b1b1b1"></path><path d="M0 430L21.5 438.3C43 446.7 86 463.3 128.8 462.3C171.7 461.3 214.3 442.7 257.2 430.2C300 417.7 343 411.3 385.8 419.3C428.7 427.3 471.3 449.7 514.2 455.3C557 461 600 450 642.8 441C685.7 432 728.3 425 771.2 419C814 413 857 408 878.5 405.5L900 403L900 601L878.5 601C857 601 814 601 771.2 601C728.3 601 685.7 601 642.8 601C600 601 557 601 514.2 601C471.3 601 428.7 601 385.8 601C343 601 300 601 257.2 601C214.3 601 171.7 601 128.8 601C86 601 43 601 21.5 601L0 601Z" fill="#828282"></path><path d="M0 486L21.5 488.3C43 490.7 86 495.3 128.8 493.8C171.7 492.3 214.3 484.7 257.2 479.5C300 474.3 343 471.7 385.8 473.5C428.7 475.3 471.3 481.7 514.2 477.2C557 472.7 600 457.3 642.8 457.2C685.7 457 728.3 472 771.2 481.3C814 490.7 857 494.3 878.5 496.2L900 498L900 601L878.5 601C857 601 814 601 771.2 601C728.3 601 685.7 601 642.8 601C600 601 557 601 514.2 601C471.3 601 428.7 601 385.8 601C343 601 300 601 257.2 601C214.3 601 171.7 601 128.8 601C86 601 43 601 21.5 601L0 601Z" fill="#555555"></path><path d="M0 542L21.5 534C43 526 86 510 128.8 505.8C171.7 501.7 214.3 509.3 257.2 511.5C300 513.7 343 510.3 385.8 508.3C428.7 506.3 471.3 505.7 514.2 507.7C557 509.7 600 514.3 642.8 518C685.7 521.7 728.3 524.3 771.2 519.8C814 515.3 857 503.7 878.5 497.8L900 492L900 601L878.5 601C857 601 814 601 771.2 601C728.3 601 685.7 601 642.8 601C600 601 557 601 514.2 601C471.3 601 428.7 601 385.8 601C343 601 300 601 257.2 601C214.3 601 171.7 601 128.8 601C86 601 43 601 21.5 601L0 601Z" fill="#2c2c2c"></path><path d="M0 537L21.5 543.2C43 549.3 86 561.7 128.8 560C171.7 558.3 214.3 542.7 257.2 542.7C300 542.7 343 558.3 385.8 559C428.7 559.7 471.3 545.3 514.2 542.2C557 539 600 547 642.8 547C685.7 547 728.3 539 771.2 538.8C814 538.7 857 546.3 878.5 550.2L900 554L900 601L878.5 601C857 601 814 601 771.2 601C728.3 601 685.7 601 642.8 601C600 601 557 601 514.2 601C471.3 601 428.7 601 385.8 601C343 601 300 601 257.2 601C214.3 601 171.7 601 128.8 601C86 601 43 601 21.5 601L0 601Z" fill="#000000"></path></svg>